<svg width="415" height="170" viewBox="0 0 415 170" fill="none" xmlns="http://www.w3.org/2000/svg">
<path d="M28 58H73V157H28V58Z" fill="#C0DCFF"/>
<path d="M81 58H124V157H81V58Z" fill="#C0DCFF"/>
<path d="M171 99H214V166H171V99Z" fill="#C0DCFF"/>
<path d="M285 99H322V166H285V99Z" fill="#C0DCFF"/>
<path d="M348 108H385V161H348V108Z" fill="#C0DCFF"/>
<path d="M188 62H225V161H188V62Z" fill="#C0DCFF"/>
<path d="M312 54H364V161H312V54Z" fill="#C0DCFF"/>
<path d="M372 47.5C372 42.2533 376.253 38 381.5 38C386.747 38 391 42.2533 391 47.5V162H372V47.5Z" fill="#C0DCFF"/>
<path d="M89 38H87V80H89V38Z" fill="#C0DCFF"/>
<path d="M115 88H158V157H115V88Z" fill="#C0DCFF"/>
<path d="M144 67C167.748 67 187 86.2518 187 110V157H144V67Z" fill="#C0DCFF"/>
<path d="M58 129H87V170H58V129Z" fill="#C0DCFF"/>
<path d="M249.5 35.1787V157.329H291.5V47.5L249.5 35.1787Z" fill="#C0DCFF"/>
<rect x="108" y="69" width="65" height="85" fill="#DCDCDC"/>
<rect x="240" y="69" width="67" height="85" fill="#DCDCDC"/>
<rect x="165" y="48" width="87" height="106" fill="#F7F7F7"/>
<rect x="162" y="42" width="94" height="6" fill="#7886D7"/>
<rect x="105" y="63" width="60" height="6" fill="#6672B7"/>
<rect x="252" y="63" width="58" height="6" fill="#6672B7"/>
<rect x="105" y="152" width="60" height="4" fill="#6672B7"/>
<rect x="248" y="152" width="60" height="5" fill="#6672B7"/>
<path d="M220.493 38C221.028 38 221.381 37.4276 221.151 36.9313L204.27 0.427253C204.006 -0.142417 203.216 -0.142418 202.953 0.427251L186.071 36.9313C185.842 37.4276 186.194 38 186.73 38H189.394C189.676 38 189.932 37.8337 190.053 37.5727L194.71 27.5019C194.831 27.2409 195.087 27.0746 195.368 27.0746H197.259C197.542 27.0746 197.8 26.9057 197.92 26.6416L199.273 23.6497C199.497 23.154 199.145 22.5868 198.612 22.5868H198.136C197.6 22.5868 197.248 22.0144 197.477 21.5181L202.953 9.67794C203.216 9.10827 204.006 9.10827 204.27 9.67794L209.745 21.5181C209.975 22.0144 209.622 22.5868 209.087 22.5868H201.023C200.739 22.5868 200.481 22.7557 200.362 23.0198L199.008 26.0117C198.784 26.5074 199.137 27.0746 199.669 27.0746H211.854C212.135 27.0746 212.392 27.2409 212.512 27.5019L217.17 37.5727C217.29 37.8337 217.547 38 217.828 38H220.493Z" fill="#7886D7"/>
<path d="M228.27 38C228.806 38 229.158 37.4276 228.929 36.9313L212.047 0.427252C211.784 -0.142417 210.994 -0.142418 210.73 0.427252L208.049 6.22471C207.956 6.42567 207.955 6.65865 208.047 6.86041L209.364 9.7731C209.624 10.3477 210.419 10.3512 210.684 9.77884L210.73 9.67794C210.994 9.10827 211.784 9.10827 212.047 9.67794L217.523 21.5181C217.752 22.0144 217.4 22.5868 216.864 22.5868H216.433C215.899 22.5868 215.546 23.1572 215.774 23.6532L217.146 26.6451C217.266 26.9073 217.523 27.0746 217.805 27.0746H219.632C219.913 27.0746 220.169 27.2409 220.29 27.5019L224.947 37.5727C225.068 37.8337 225.324 38 225.606 38H228.27Z" fill="#7886D7"/>
<path d="M205.624 12.0844C205.536 11.8843 205.538 11.6549 205.63 11.4567L206.831 8.85963C207.095 8.28729 207.89 8.29074 208.15 8.86537L209.468 11.7781C209.559 11.9798 209.558 12.2128 209.465 12.4138L208.243 15.0558C207.977 15.6319 207.175 15.6236 206.92 15.0421L205.624 12.0844Z" fill="#7886D7"/>
<path d="M205.722 14.1317C205.467 13.5502 204.665 13.5418 204.399 14.1179L193.849 36.9313C193.619 37.4276 193.972 38 194.507 38H197.172C197.453 38 197.71 37.8337 197.83 37.5727L202.488 27.5019C202.608 27.2409 202.865 27.0746 203.146 27.0746H215.389C215.923 27.0746 216.276 26.5042 216.048 26.0082L214.493 22.6173C214.491 22.6126 214.493 22.607 214.498 22.6048C214.507 22.6005 214.504 22.5868 214.494 22.5868H205.913C205.378 22.5868 205.025 22.0144 205.255 21.5181L207.013 17.717C207.104 17.5189 207.107 17.2894 207.019 17.0894L205.722 14.1317Z" fill="#7886D7"/>
<rect x="195" y="38" width="2" height="4" fill="#ECECEC"/>
<path d="M218 38H220V42H218V38Z" fill="#ECECEC"/>
<rect x="168" y="51" width="11" height="20" fill="#BBC5FF"/>
<rect x="168" y="69" width="11" height="2" fill="#38C172"/>
<rect x="182" y="51" width="11" height="20" fill="#BBC5FF"/>
<rect x="182" y="69" width="11" height="2" fill="#38C172"/>
<rect x="196" y="51" width="11" height="20" fill="#BBC5FF"/>
<rect x="196" y="69" width="11" height="2" fill="#38C172"/>
<rect x="210" y="51" width="11" height="20" fill="#BBC5FF"/>
<rect x="210" y="69" width="11" height="2" fill="#38C172"/>
<rect x="224" y="51" width="11" height="20" fill="#BBC5FF"/>
<rect x="224" y="69" width="11" height="2" fill="#38C172"/>
<rect x="238" y="51" width="11" height="20" fill="#BBC5FF"/>
<rect x="238" y="69" width="11" height="2" fill="#38C172"/>
<rect x="168" y="80" width="11" height="20" fill="#BBC5FF"/>
<rect x="168" y="98" width="11" height="2" fill="#38C172"/>
<rect x="182" y="80" width="11" height="20" fill="#BBC5FF"/>
<rect x="182" y="98" width="11" height="2" fill="#38C172"/>
<rect x="196" y="80" width="11" height="20" fill="#BBC5FF"/>
<rect x="196" y="98" width="11" height="2" fill="#38C172"/>
<rect x="210" y="80" width="11" height="20" fill="#BBC5FF"/>
<rect x="210" y="98" width="11" height="2" fill="#38C172"/>
<rect x="224" y="80" width="11" height="20" fill="#BBC5FF"/>
<rect x="224" y="98" width="11" height="2" fill="#38C172"/>
<rect x="238" y="80" width="11" height="20" fill="#BBC5FF"/>
<rect x="238" y="98" width="11" height="2" fill="#38C172"/>
<rect x="191" y="130" width="34" height="23" fill="#BBC5FF" stroke="#DCDCDC" stroke-width="2"/>
<rect x="162" y="152" width="92" height="3" fill="#7886D7"/>
<rect x="207" y="131" width="2" height="21" fill="#DCDCDC"/>
<rect x="117" y="73" width="11" height="20" fill="#AEBAFF"/>
<rect x="117" y="91" width="11" height="2" fill="#32AF67"/>
<rect x="132" y="73" width="11" height="20" fill="#AEBAFF"/>
<rect x="132" y="91" width="11" height="2" fill="#32AF67"/>
<rect x="146" y="73" width="11" height="20" fill="#AEBAFF"/>
<rect x="146" y="91" width="11" height="2" fill="#32AF67"/>
<rect x="117" y="97" width="11" height="20" fill="#AEBAFF"/>
<rect x="117" y="115" width="11" height="2" fill="#32AF67"/>
<rect x="132" y="97" width="11" height="20" fill="#AEBAFF"/>
<rect x="132" y="115" width="11" height="2" fill="#32AF67"/>
<rect x="146" y="97" width="11" height="20" fill="#AEBAFF"/>
<rect x="146" y="115" width="11" height="2" fill="#32AF67"/>
<rect x="117" y="121" width="11" height="20" fill="#AEBAFF"/>
<rect x="117" y="139" width="11" height="2" fill="#32AF67"/>
<rect x="132" y="121" width="11" height="20" fill="#AEBAFF"/>
<rect x="132" y="139" width="11" height="2" fill="#32AF67"/>
<rect x="146" y="121" width="11" height="20" fill="#AEBAFF"/>
<rect x="146" y="139" width="11" height="2" fill="#32AF67"/>
<rect x="260" y="73" width="11" height="20" fill="#AEBAFF"/>
<rect x="260" y="91" width="11" height="2" fill="#32AF67"/>
<rect x="275" y="73" width="11" height="20" fill="#AEBAFF"/>
<rect x="275" y="91" width="11" height="2" fill="#32AF67"/>
<rect x="289" y="73" width="11" height="20" fill="#AEBAFF"/>
<rect x="289" y="91" width="11" height="2" fill="#32AF67"/>
<rect x="260" y="97" width="11" height="20" fill="#AEBAFF"/>
<rect x="260" y="115" width="11" height="2" fill="#32AF67"/>
<rect x="275" y="97" width="11" height="20" fill="#AEBAFF"/>
<rect x="275" y="115" width="11" height="2" fill="#32AF67"/>
<rect x="289" y="97" width="11" height="20" fill="#AEBAFF"/>
<rect x="289" y="115" width="11" height="2" fill="#32AF67"/>
<rect x="260" y="121" width="11" height="20" fill="#AEBAFF"/>
<rect x="260" y="139" width="11" height="2" fill="#32AF67"/>
<rect x="275" y="121" width="11" height="20" fill="#AEBAFF"/>
<rect x="275" y="139" width="11" height="2" fill="#32AF67"/>
<rect x="289" y="121" width="11" height="20" fill="#AEBAFF"/>
<rect x="289" y="139" width="11" height="2" fill="#32AF67"/>
<path d="M182.576 119.056H178.376L177.548 121H175.94L179.72 112.6H181.256L185.048 121H183.416L182.576 119.056ZM182.06 117.832L180.476 114.16L178.904 117.832H182.06ZM185.972 112.096H187.472V121H185.972V112.096ZM189.441 112.096H190.941V121H189.441V112.096ZM198.934 117.832C198.934 117.936 198.926 118.084 198.91 118.276H193.882C193.97 118.748 194.198 119.124 194.566 119.404C194.942 119.676 195.406 119.812 195.958 119.812C196.662 119.812 197.242 119.58 197.698 119.116L198.502 120.04C198.214 120.384 197.85 120.644 197.41 120.82C196.97 120.996 196.474 121.084 195.922 121.084C195.218 121.084 194.598 120.944 194.062 120.664C193.526 120.384 193.11 119.996 192.814 119.5C192.526 118.996 192.382 118.428 192.382 117.796C192.382 117.172 192.522 116.612 192.802 116.116C193.09 115.612 193.486 115.22 193.99 114.94C194.494 114.66 195.062 114.52 195.694 114.52C196.318 114.52 196.874 114.66 197.362 114.94C197.858 115.212 198.242 115.6 198.514 116.104C198.794 116.6 198.934 117.176 198.934 117.832ZM195.694 115.72C195.214 115.72 194.806 115.864 194.47 116.152C194.142 116.432 193.942 116.808 193.87 117.28H197.506C197.442 116.816 197.246 116.44 196.918 116.152C196.59 115.864 196.182 115.72 195.694 115.72ZM201.803 115.528C202.235 114.856 202.995 114.52 204.083 114.52V115.948C203.955 115.924 203.839 115.912 203.735 115.912C203.151 115.912 202.695 116.084 202.367 116.428C202.039 116.764 201.875 117.252 201.875 117.892V121H200.375V114.592H201.803V115.528ZM211.657 114.592V120.028C211.657 122.284 210.505 123.412 208.201 123.412C207.585 123.412 207.001 123.332 206.449 123.172C205.897 123.02 205.441 122.796 205.081 122.5L205.753 121.372C206.033 121.604 206.385 121.788 206.809 121.924C207.241 122.068 207.677 122.14 208.117 122.14C208.821 122.14 209.337 121.98 209.665 121.66C209.993 121.34 210.157 120.852 210.157 120.196V119.86C209.901 120.14 209.589 120.352 209.221 120.496C208.853 120.64 208.449 120.712 208.009 120.712C207.401 120.712 206.849 120.584 206.353 120.328C205.865 120.064 205.477 119.696 205.189 119.224C204.909 118.752 204.769 118.212 204.769 117.604C204.769 116.996 204.909 116.46 205.189 115.996C205.477 115.524 205.865 115.16 206.353 114.904C206.849 114.648 207.401 114.52 208.009 114.52C208.473 114.52 208.893 114.596 209.269 114.748C209.653 114.9 209.973 115.132 210.229 115.444V114.592H211.657ZM208.237 119.44C208.805 119.44 209.269 119.272 209.629 118.936C209.997 118.592 210.181 118.148 210.181 117.604C210.181 117.068 209.997 116.632 209.629 116.296C209.269 115.96 208.805 115.792 208.237 115.792C207.661 115.792 207.189 115.96 206.821 116.296C206.461 116.632 206.281 117.068 206.281 117.604C206.281 118.148 206.461 118.592 206.821 118.936C207.189 119.272 207.661 119.44 208.237 119.44ZM219.629 114.592L216.629 121.516C216.349 122.212 216.009 122.7 215.609 122.98C215.209 123.268 214.725 123.412 214.157 123.412C213.837 123.412 213.521 123.36 213.209 123.256C212.897 123.152 212.641 123.008 212.441 122.824L213.041 121.72C213.185 121.856 213.353 121.964 213.545 122.044C213.745 122.124 213.945 122.164 214.145 122.164C214.409 122.164 214.625 122.096 214.793 121.96C214.969 121.824 215.129 121.596 215.273 121.276L215.381 121.024L212.585 114.592H214.145L216.161 119.332L218.189 114.592H219.629ZM225.83 119.056H221.63L220.802 121H219.194L222.974 112.6H224.51L228.302 121H226.67L225.83 119.056ZM225.314 117.832L223.73 114.16L222.158 117.832H225.314ZM229.226 114.592H230.726V121H229.226V114.592ZM229.982 113.536C229.71 113.536 229.482 113.452 229.298 113.284C229.114 113.108 229.022 112.892 229.022 112.636C229.022 112.38 229.114 112.168 229.298 112C229.482 111.824 229.71 111.736 229.982 111.736C230.254 111.736 230.482 111.82 230.666 111.988C230.85 112.148 230.942 112.352 230.942 112.6C230.942 112.864 230.85 113.088 230.666 113.272C230.49 113.448 230.262 113.536 229.982 113.536ZM238.971 112.096V121H237.531V120.172C237.283 120.476 236.975 120.704 236.607 120.856C236.247 121.008 235.847 121.084 235.407 121.084C234.791 121.084 234.235 120.948 233.739 120.676C233.251 120.404 232.867 120.02 232.587 119.524C232.307 119.02 232.167 118.444 232.167 117.796C232.167 117.148 232.307 116.576 232.587 116.08C232.867 115.584 233.251 115.2 233.739 114.928C234.235 114.656 234.791 114.52 235.407 114.52C235.831 114.52 236.219 114.592 236.571 114.736C236.923 114.88 237.223 115.096 237.471 115.384V112.096H238.971ZM235.587 119.8C235.947 119.8 236.271 119.72 236.559 119.56C236.847 119.392 237.075 119.156 237.243 118.852C237.411 118.548 237.495 118.196 237.495 117.796C237.495 117.396 237.411 117.044 237.243 116.74C237.075 116.436 236.847 116.204 236.559 116.044C236.271 115.876 235.947 115.792 235.587 115.792C235.227 115.792 234.903 115.876 234.615 116.044C234.327 116.204 234.099 116.436 233.931 116.74C233.763 117.044 233.679 117.396 233.679 117.796C233.679 118.196 233.763 118.548 233.931 118.852C234.099 119.156 234.327 119.392 234.615 119.56C234.903 119.72 235.227 119.8 235.587 119.8Z" fill="#6672B7"/>
<path d="M49 154H40L40.5 143H48.5L49 154Z" fill="#AD7038"/>
<path d="M40.556 142H48.5L48.6324 146H40.3682L40.556 142Z" fill="#8F5D2F"/>
<path d="M57 137.5L59 143H31L33 137.5H31L33 129.5H31L45 87L59 129.5H57L59 137.5H57Z" fill="#38C172"/>
<path d="M315.896 154H309.448L309.806 146.119H315.537L315.896 154Z" fill="#AD7038"/>
<path d="M309.846 145.403H315.537L315.632 148.269H309.712L309.846 145.403Z" fill="#8F5D2F"/>
<path d="M321.627 142.179L323.06 146.119H303L304.433 142.179H303L304.433 136.448H303L313.03 106L323.06 136.448H321.627L323.06 142.179H321.627Z" fill="#38C172"/>
<rect x="74.6269" y="143.507" width="3.31343" height="10.4925" fill="#AD7038"/>
<rect x="74.6269" y="145.164" width="3.31343" height="1.65672" fill="#8F5D2F"/>
<circle cx="76.2836" cy="137.433" r="8.28358" fill="#38C172"/>
<circle cx="76.2836" cy="128.045" r="6.07463" fill="#38C172"/>
<circle cx="76.5597" cy="120.59" r="3.58955" fill="#38C172"/>
<rect x="366" y="135" width="6" height="19" fill="#AD7038"/>
<rect x="366" y="138" width="6" height="3" fill="#8F5D2F"/>
<circle cx="369" cy="124" r="15" fill="#38C172"/>
<circle cx="369" cy="107" r="11" fill="#38C172"/>
<circle cx="369.5" cy="93.5" r="6.5" fill="#38C172"/>
<circle cx="182.84" cy="145.16" r="2.16" fill="#33B068"/>
<circle cx="178.52" cy="148.52" r="5.52" fill="#38C172"/>
<circle cx="240.84" cy="145.16" r="2.16" fill="#33B068"/>
<circle cx="236.52" cy="148.52" r="5.52" fill="#38C172"/>
<path fill-rule="evenodd" clip-rule="evenodd" d="M15.5 154C6.93959 154 0 160.94 0 169.5C0 169.667 0.00265052 169.834 0.00791185 170H414.992C414.997 169.834 415 169.667 415 169.5C415 160.94 408.06 154 399.5 154H15.5Z" fill="#9E9E9E"/>
</svg>
