<svg width="119" height="102" viewBox="0 0 119 102" fill="none" xmlns="http://www.w3.org/2000/svg">
<path d="M94.6583 101.608C96.1272 101.608 97.0949 100.078 96.4651 98.7506L50.1372 1.14243C49.4142 -0.380808 47.2465 -0.380812 46.5235 1.14243L0.195621 98.7506C-0.434221 100.078 0.533534 101.608 2.00243 101.608H9.31495C10.0873 101.608 10.7906 101.164 11.1218 100.466L23.9029 73.5372C24.2341 72.8395 24.9374 72.3948 25.7097 72.3948H30.8971C31.6755 72.3948 32.3833 71.9431 32.7111 71.237L36.4254 63.237C37.0409 61.9114 36.0729 60.3948 34.6114 60.3948H33.3038C31.8349 60.3948 30.8672 58.8643 31.497 57.5372L46.5235 25.8778C47.2465 24.3546 49.4142 24.3546 50.1372 25.8778L65.1637 57.5372C65.7936 58.8643 64.8258 60.3948 63.3569 60.3948H41.2265C40.448 60.3948 39.7403 60.8465 39.4125 61.5526L35.6982 69.5526C35.0827 70.8782 36.0507 72.3948 37.5122 72.3948H70.951C71.7234 72.3948 72.4267 72.8395 72.7578 73.5372L85.539 100.466C85.8701 101.164 86.5734 101.608 87.3458 101.608H94.6583Z" fill="#FAFAFA"/>
<path d="M116.002 101.608C117.471 101.608 118.439 100.078 117.809 98.7506L71.481 1.14243C70.758 -0.380809 68.5903 -0.380811 67.8674 1.14243L60.5097 16.6443C60.2547 17.1816 60.252 17.8046 60.5025 18.3441L64.1185 26.1323C64.8318 27.6688 67.0129 27.678 67.7393 26.1476L67.8674 25.8778C68.5903 24.3546 70.758 24.3546 71.481 25.8778L86.5075 57.5372C87.1374 58.8643 86.1696 60.3948 84.7007 60.3948H83.5177C82.0516 60.3948 81.0838 61.9199 81.708 63.2464L85.4727 71.2464C85.8026 71.9474 86.5077 72.3948 87.2824 72.3948H92.2948C93.0672 72.3948 93.7705 72.8395 94.1016 73.5372L106.883 100.466C107.214 101.164 107.917 101.608 108.69 101.608H116.002Z" fill="#FAFAFA"/>
<path d="M53.8527 32.3124C53.612 31.7775 53.6182 31.1639 53.8697 30.6341L57.1657 23.6898C57.8921 22.1594 60.0731 22.1686 60.7865 23.7051L64.4025 31.4934C64.653 32.0328 64.6503 32.6558 64.3953 33.1932L61.0422 40.2578C60.3111 41.7982 58.1112 41.7759 57.4115 40.2209L53.8527 32.3124Z" fill="#FAFAFA"/>
<path d="M54.123 37.7867C53.4232 36.2318 51.2234 36.2095 50.4923 37.7499L21.5394 98.7506C20.9096 100.078 21.8773 101.608 23.3462 101.608H30.6588C31.4311 101.608 32.1344 101.164 32.4656 100.466L45.2467 73.5372C45.5779 72.8395 46.2812 72.3948 47.0535 72.3948H80.6512C82.1172 72.3948 83.0851 70.8697 82.4609 69.5432L78.1941 60.4764C78.1882 60.4638 78.1936 60.4488 78.2062 60.4428C78.2306 60.4314 78.2224 60.3948 78.1955 60.3948H54.6476C53.1787 60.3948 52.211 58.8643 52.8408 57.5372L57.6648 47.3736C57.9163 46.8437 57.9225 46.2302 57.6818 45.6953L54.123 37.7867Z" fill="#FAFAFA"/>
</svg>
