<svg width="99" height="137" viewBox="0 0 99 137" fill="none" xmlns="http://www.w3.org/2000/svg">
<path d="M32.4156 24.7387C32.4156 33.6402 25.1591 40.8563 16.2078 40.8563C7.25647 40.8563 0 33.6402 0 24.7387C0 15.8371 7.25647 8.62105 16.2078 8.62105C25.1591 8.62105 32.4156 15.8371 32.4156 24.7387Z" fill="#FAFAFA"/>
<path d="M49.0003 14.6183C49.0003 22.6918 42.4188 29.2366 34.3002 29.2366C26.1816 29.2366 19.6001 22.6918 19.6001 14.6183C19.6001 6.54483 26.1816 0 34.3002 0C42.4188 0 49.0003 6.54483 49.0003 14.6183Z" fill="#FAFAFA"/>
<path d="M47.1157 29.2366C47.1157 37.3101 40.5342 43.8549 32.4156 43.8549C24.2969 43.8549 17.7155 37.3101 17.7155 29.2366C17.7155 21.1631 24.2969 14.6183 32.4156 14.6183C40.5342 14.6183 47.1157 21.1631 47.1157 29.2366Z" fill="#FAFAFA"/>
<path d="M65.585 23.2393C65.585 31.3128 59.0036 37.8576 50.8849 37.8576C42.7663 37.8576 36.1848 31.3128 36.1848 23.2393C36.1848 15.1659 42.7663 8.62105 50.8849 8.62105C59.0036 8.62105 65.585 15.1659 65.585 23.2393Z" fill="#FAFAFA"/>
<path d="M63.7004 27.3625C63.7004 35.4359 57.1189 41.9807 49.0003 41.9807C40.8817 41.9807 34.3002 35.4359 34.3002 27.3625C34.3002 19.289 40.8817 12.7442 49.0003 12.7442C57.1189 12.7442 63.7004 19.289 63.7004 27.3625Z" fill="#FAFAFA"/>
<path d="M74.2543 29.2366C74.2543 35.0329 69.5291 39.7318 63.7004 39.7318C57.8716 39.7318 53.1465 35.0329 53.1465 29.2366C53.1465 23.4403 57.8716 18.7414 63.7004 18.7414C69.5291 18.7414 74.2543 23.4403 74.2543 29.2366Z" fill="#FAFAFA"/>
<path d="M54.4126 38.5131C50.3334 39.4729 50.3334 41.8725 50.3334 42.1124C52.2531 40.4328 54.4126 40.1928 53.9327 41.3926C53.4528 42.5923 51.7732 44.9919 52.9729 44.512C54.1727 44.0321 54.4126 44.272 53.6928 44.9919C53.1169 45.5678 52.653 47.4714 52.493 48.3512C52.813 47.2314 53.6448 45.2798 54.4126 46.4316C55.3725 47.8713 56.8122 47.3914 58.2519 47.3914C57.484 48.1593 57.1321 48.8311 57.0521 49.0711C58.6518 47.8713 62.4271 45.3758 64.7306 44.9919C67.0342 44.6079 68.5699 46.2716 69.0498 47.1515C74.5687 49.631 85.7505 54.782 86.3264 55.5498C87.0463 56.5096 90.4056 51.2307 90.1657 52.1905C89.9257 53.1503 90.4056 54.1101 91.1255 54.59C90.8855 54.1101 90.8855 52.9103 91.1255 52.1905C90.9335 51.6146 92.3253 52.1105 93.0451 52.4304C92.9651 51.3906 92.9012 49.455 93.2851 50.0309C93.669 50.6068 95.5246 50.7508 96.4045 50.7508C96.0845 50.4308 95.3487 49.599 94.9648 48.8311C95.9246 48.8311 97.4443 50.2708 98.0841 50.9907C98.3241 50.0309 98.3241 48.0153 96.4045 47.6314C94.0049 47.1515 94.0049 45.9517 93.765 44.7519C93.765 43.7921 96.0845 42.5124 97.8442 41.8725C97.6042 41.7925 97.0284 41.5845 96.6444 41.3926C96.2605 41.2006 97.2843 40.6727 97.8442 40.4328L95.4447 39.9529C93.765 36.1136 89.2059 34.194 87.5262 34.194C85.8465 34.194 82.9671 26.9954 82.4872 26.9954C82.0073 26.9954 71.4493 27.9552 68.3299 31.7944C65.2105 35.6337 58.4918 37.5533 54.4126 38.5131Z" fill="#5B2B17"/>
<path d="M70.2496 45.4718C71.0174 45.6637 71.3694 46.1916 71.4493 46.4316C71.3694 47.3914 71.2094 49.359 71.2094 49.551C71.2094 49.7909 73.369 50.2708 73.6089 50.5108C73.8009 50.7028 77.2082 47.7113 78.8879 46.1916C78.168 45.1518 76.6803 42.9763 76.4884 42.5923C76.2484 42.1124 76.9683 39.3215 76.4884 38.8416C76.2484 38.6017 72.4092 31.0746 68.5699 33.7141C64.7307 36.3536 66.6503 39.7129 66.8902 41.6325C67.1302 43.5522 69.2898 45.2318 70.2496 45.4718Z" fill="#E8A088"/>
<path d="M85.8466 128.736C84.5028 128.736 83.0471 128.256 82.4872 128.016L85.1267 126.096C85.9265 126.976 87.1903 128.736 85.8466 128.736Z" fill="#E8A088"/>
<path d="M88.726 132.575L86.3264 128.256C84.2468 127.616 80.1356 126.48 80.3276 127.056C80.5676 127.776 77.2082 133.535 75.2886 134.255C73.7529 134.83 73.6889 136.254 73.8489 136.894C74.7287 136.974 77.4482 137.086 81.2874 136.894C86.6624 135.166 88.486 133.295 88.726 132.575Z" fill="#FCF5E6"/>
<path d="M89.6858 118.178L87.2863 116.738L85.8466 116.258L83.687 120.577C83.9269 120.577 84.9347 120.817 86.0865 121.777C87.2383 122.737 88.966 119.777 89.6858 118.178Z" fill="#E8A088"/>
<path d="M89.9258 118.418C88.582 117.65 85.6066 119.057 84.6468 120.097L86.8064 116.498C88.1661 117.298 91.2695 119.185 89.9258 118.418Z" fill="#E29078"/>
<path d="M86.0865 121.777V122.257C85.6866 123.697 85.4146 126.48 87.5262 126.096C90.1657 125.616 92.5652 122.017 92.3253 120.817C92.0853 119.617 89.6858 118.178 89.4458 117.938C88.87 121.009 86.9663 121.777 86.0865 121.777Z" fill="#FCF5E6"/>
<path d="M85.8465 32.9942C84.6948 33.954 84.7267 38.8331 84.8867 41.1526L85.6066 42.5923L85.1267 46.9115L83.207 49.311L80.0876 44.9919C80.1676 44.272 80.3276 42.4964 80.3276 41.1526C80.3276 39.4729 80.8075 32.2743 81.5274 31.3145C82.2472 30.3547 83.9269 18.837 83.9269 17.8771C83.9269 17.1093 84.2305 14.9738 84.4705 13.934C84.4705 14.014 84.8387 13.7499 85.6066 12.5982C86.0865 10.9185 87.0463 10.4386 87.0463 10.9185C87.0463 11.3984 87.2862 12.5982 86.3264 14.2778C87.5262 13.318 90.8855 9.71873 91.1255 9.95869C91.3655 10.1986 91.1255 10.4386 89.2059 13.558C92.0853 10.1986 92.8052 10.4386 93.0451 10.4386C93.2851 10.4386 88.9659 14.9977 89.9257 14.2778C90.8855 13.558 93.525 11.1585 94.0049 11.3984C94.3889 11.5904 91.9253 14.1979 90.6456 15.4776C91.6854 14.7578 93.813 13.462 94.0049 14.0379C92.8852 14.9177 90.5976 16.6774 90.4056 16.6774C90.1657 16.6774 88.0061 19.0769 87.5262 19.5568C87.0463 20.0367 86.3264 30.8346 85.8465 32.9942Z" fill="#E8A088"/>
<path d="M54.6526 35.6337C54.4607 37.3614 63.211 43.8721 67.6101 46.9115C68.7299 48.7511 70.4415 52.3344 68.33 51.9505C65.6905 51.4706 55.6124 43.3122 54.8926 43.0722C54.1727 42.8323 52.0131 36.8335 51.7732 34.9138C51.5332 32.9942 53.2129 30.1148 53.4529 30.1148C53.6448 30.1148 53.5328 31.5545 53.4529 32.2743C53.8528 31.3945 54.7486 29.6829 55.1325 29.8748C55.5164 30.0668 55.2925 32.1944 55.1325 33.2342C54.8926 33.954 54.6526 33.7141 54.6526 35.6337Z" fill="#E8A088"/>
<path d="M70.9695 45.7117C72.6971 45.3278 75.8485 43.3922 76.4884 42.3524L77.2082 43.5522L77.9281 44.7519L79.1279 46.6715L72.1692 49.311C72.0092 48.3512 71.7373 46.4796 70.9695 45.7117Z" fill="#E29078"/>
<path d="M86.3264 55.5498C87.8622 58.2373 87.9261 66.9076 87.7662 70.9068L77.6881 73.7863C77.7681 73.6263 77.2562 73.1624 74.5687 72.5865C71.2094 71.8666 71.2094 67.3075 71.2094 65.1479C69.4817 63.6122 69.0498 61.3087 69.0498 60.3489V54.83C68.5699 53.7902 67.4181 51.3746 66.6503 50.0309C65.9304 48.3512 66.8902 46.1916 67.6101 46.6715C68.186 47.0555 70.3296 46.7515 71.4493 46.4316C71.5293 46.6715 71.4493 47.3914 72.6491 48.5912C73.6089 48.1113 76.4884 46.1916 78.168 45.7117C79.4297 45.3513 80.085 42.9177 80.2927 41.4301C80.2952 41.3075 80.305 41.2205 80.3276 41.1526C80.3178 41.2406 80.3062 41.3333 80.2927 41.4301C80.2865 41.7408 80.3276 42.2797 80.3276 43.3122C80.3276 45.0089 82.2472 46.9115 83.447 47.3914C84.6468 47.8713 85.1267 43.3122 84.8867 41.1526C86.2305 41.3446 86.0865 43.9521 85.8465 45.2318C85.9265 45.7117 86.2785 47.0075 87.0463 48.3512C88.0061 50.0309 87.0463 52.9103 86.3264 55.5498Z" fill="#FCCB7F"/>
<path d="M83.447 47.6314C85.1747 51.4706 83.207 65.2279 82.0073 71.6267L79.1278 73.3064C80.5676 67.5475 83.447 54.3501 83.447 47.6314Z" fill="#F4C077"/>
<path d="M78.8455 63.2283C80.1723 65.3094 77.4097 73.4372 76.4884 76.9057L75.7685 75.9459C76.8741 72.8242 78.8455 66.1078 78.8455 63.2283Z" fill="#F4C077"/>
<path d="M84.3645 66.5877C85.6912 68.6688 82.9287 76.7965 82.0073 80.265L81.2874 79.3052C82.3931 76.1836 84.3645 69.4671 84.3645 66.5877Z" fill="#F4C077"/>
<path d="M74.5687 72.8265C78.328 71.7067 86.3264 69.7071 88.2461 70.6669C89.4458 73.3064 95.4447 80.505 91.1255 88.6634C86.8063 96.8218 83.4268 98.5566 81.2312 104.634C80.729 106.024 81.8178 108.138 82.2279 110.116L89.2059 115.058L84.8867 119.792C85.8346 122.485 86.8032 124.908 87.5262 126.576L80.8075 128.496C79.8477 124.736 77.4962 116.882 75.7685 115.538C75.1853 114.566 74.3659 113.319 73.5813 111.939C73.1106 111.859 71.4973 110.835 68.8098 107.38C65.4505 103.061 66.8902 102.101 67.3701 100.421C67.8316 98.8061 73.129 87.4636 73.6089 84.8241C72.1692 82.6646 75.7685 79.0653 75.2886 78.5853C74.9047 78.2014 74.6487 74.5861 74.5687 72.8265Z" fill="#4E4051"/>
<path d="M76.2484 87.7036C74.8087 92.1027 71.7853 101.813 71.2094 105.46C71.3521 107.601 72.4291 109.913 73.5813 111.939C73.1106 111.859 71.4973 110.835 68.8098 107.38C65.4505 103.061 66.8902 102.101 67.3701 100.421C67.8316 98.8061 73.129 87.4636 73.6089 84.8241L76.2484 87.7036Z" fill="#433745"/>
<path d="M88.846 18.1171C86.3505 18.501 84.6468 17.1573 84.1669 16.1975C84.0069 16.9173 84.1189 17.0613 83.9269 18.597C83.687 20.5166 87.0463 21.7164 87.2863 20.5166C87.5262 19.3169 86.9263 20.2767 88.846 18.1171Z" fill="#E29078"/>
<path d="M84.4068 78.1054C81.0475 78.1054 76.2484 87.2237 76.2484 87.7036C74.8087 90.4231 72.5532 94.2303 75.0487 87.7036C77.5442 81.1769 83.2071 77.5455 84.4068 78.1054Z" fill="#433745"/>
<path d="M75.0642 80.9887C74.8711 81.78 77.0059 83.4989 77.1328 83.5299C77.769 84.0445 78.4576 85.3817 76.8755 84.3726C75.2933 83.3636 74.8472 81.2352 75.0642 80.9887Z" fill="#433745"/>
<path d="M89.454 121.099L84.8941 125.834L82.2279 116.116C84.0552 117.279 87.8593 119.903 89.454 121.099Z" fill="#433745"/>
</svg>
