<svg width="198" height="287" viewBox="0 0 198 287" fill="none" xmlns="http://www.w3.org/2000/svg">
<path d="M65.0457 49.641C65.0457 67.503 50.4847 81.9829 32.5228 81.9829C14.561 81.9829 0 67.503 0 49.641C0 31.7791 14.561 17.2991 32.5228 17.2991C50.4847 17.2991 65.0457 31.7791 65.0457 49.641Z" fill="#FAFAFA"/>
<path d="M98.3249 29.3333C98.3249 45.5337 85.1184 58.6667 68.8274 58.6667C52.5364 58.6667 39.3299 45.5337 39.3299 29.3333C39.3299 13.133 52.5364 0 68.8274 0C85.1184 0 98.3249 13.133 98.3249 29.3333Z" fill="#FAFAFA"/>
<path d="M94.5431 58.6667C94.5431 74.867 81.3367 88 65.0457 88C48.7547 88 35.5482 74.867 35.5482 58.6667C35.5482 42.4663 48.7547 29.3333 65.0457 29.3333C81.3367 29.3333 94.5431 42.4663 94.5431 58.6667Z" fill="#FAFAFA"/>
<path d="M131.604 46.6325C131.604 62.8328 118.398 75.9658 102.107 75.9658C85.8156 75.9658 72.6091 62.8328 72.6091 46.6325C72.6091 30.4321 85.8156 17.2991 102.107 17.2991C118.398 17.2991 131.604 30.4321 131.604 46.6325Z" fill="#FAFAFA"/>
<path d="M127.822 54.906C127.822 71.1063 114.616 84.2393 98.3249 84.2393C82.0339 84.2393 68.8274 71.1063 68.8274 54.906C68.8274 38.7056 82.0339 25.5727 98.3249 25.5727C114.616 25.5727 127.822 38.7056 127.822 54.906Z" fill="#FAFAFA"/>
<path d="M149 58.6667C149 70.2977 139.518 79.7265 127.822 79.7265C116.126 79.7265 106.645 70.2977 106.645 58.6667C106.645 47.0356 116.126 37.6068 127.822 37.6068C139.518 37.6068 149 47.0356 149 58.6667Z" fill="#FAFAFA"/>
<path d="M109.185 89.3208C101 91.2468 101 96.0618 101 96.5433C104.852 93.1728 109.185 92.6913 108.222 95.0988C107.259 97.5063 103.889 102.321 106.296 101.358C108.704 100.395 109.185 100.877 107.741 102.321C106.585 103.477 105.654 107.297 105.333 109.062C105.975 106.815 107.645 102.899 109.185 105.21C111.111 108.099 114 107.136 116.889 107.136C115.349 108.677 114.642 110.025 114.482 110.507C117.692 108.099 125.267 103.092 129.89 102.321C134.512 101.551 137.594 104.889 138.557 106.655C149.631 111.63 172.069 121.966 173.224 123.507C174.669 125.433 181.41 114.84 180.928 116.766C180.447 118.692 181.41 120.618 182.854 121.581C182.373 120.618 182.373 118.211 182.854 116.766C182.469 115.61 185.262 116.606 186.706 117.248C186.546 115.161 186.417 111.277 187.188 112.433C187.958 113.588 191.681 113.877 193.447 113.877C192.805 113.235 191.328 111.566 190.558 110.025C192.484 110.025 195.533 112.914 196.817 114.359C197.299 112.433 197.299 108.388 193.447 107.618C188.632 106.655 188.632 104.247 188.151 101.84C188.151 99.9137 192.805 97.3458 196.336 96.0618C195.854 95.9013 194.699 95.484 193.928 95.0988C193.158 94.7136 195.212 93.6543 196.336 93.1728L191.521 92.2098C188.151 84.5059 179.002 80.6539 175.632 80.6539C172.261 80.6539 166.483 66.2091 165.52 66.2091C164.557 66.2091 143.372 68.1351 137.112 75.839C130.853 83.5429 117.371 87.3949 109.185 89.3208Z" fill="#5B2B17"/>
<path d="M140.964 103.284C142.505 103.669 143.211 104.729 143.372 105.21C143.211 107.136 142.89 111.084 142.89 111.47C142.89 111.951 147.223 112.914 147.705 113.396C148.09 113.781 154.927 107.778 158.298 104.729C156.853 102.642 153.868 98.2766 153.483 97.5063C153.001 96.5433 154.446 90.943 153.483 89.98C153.001 89.4985 145.297 74.3945 137.594 79.6909C129.89 84.9874 133.742 91.7283 134.223 95.5803C134.705 99.4322 139.038 102.803 140.964 103.284Z" fill="#E8A088"/>
<path d="M172.261 270.363C169.565 270.363 166.644 269.4 165.52 268.918L170.817 265.066C172.422 266.832 174.958 270.363 172.261 270.363Z" fill="#E8A088"/>
<path d="M178.039 278.067L173.224 269.4C169.051 268.116 160.802 265.837 161.187 266.992C161.668 268.437 154.927 279.993 151.075 281.437C147.994 282.593 147.865 285.45 148.186 286.734C149.952 286.894 155.409 287.119 163.113 286.734C173.898 283.267 177.558 279.511 178.039 278.067Z" fill="#FCF5E6"/>
<path d="M179.965 249.177L175.15 246.288L172.261 245.325L167.928 253.992C168.409 253.992 170.432 254.474 172.743 256.399C175.054 258.325 178.521 252.387 179.965 249.177Z" fill="#E8A088"/>
<path d="M180.447 249.659C177.75 248.118 171.78 250.943 169.854 253.029L174.187 245.807C176.916 247.412 183.143 251.199 180.447 249.659Z" fill="#E29078"/>
<path d="M172.743 256.399V257.362C171.94 260.251 171.395 265.837 175.632 265.066C180.928 264.103 185.743 256.881 185.262 254.474C184.78 252.066 179.965 249.177 179.484 248.696C178.328 254.859 174.508 256.399 172.743 256.399Z" fill="#FCF5E6"/>
<path d="M172.261 78.2465C169.95 80.1725 170.014 89.9628 170.335 94.6173L171.78 97.5063L170.817 106.173L166.965 110.988L160.705 102.321C160.866 100.877 161.187 97.3137 161.187 94.6173C161.187 91.2468 162.15 76.802 163.594 74.876C165.039 72.95 168.409 49.8383 168.409 47.9123C168.409 46.3715 169.019 42.0865 169.5 40C169.5 40.1605 170.239 39.6306 171.78 37.3194C172.743 33.949 174.669 32.986 174.669 33.949C174.669 34.912 175.15 37.3194 173.224 40.6899C175.632 38.7639 182.373 31.5415 182.854 32.023C183.336 32.5045 182.854 32.986 179.002 39.2454C184.78 32.5045 186.225 32.986 186.706 32.986C187.188 32.986 178.521 42.1344 180.447 40.6899C182.373 39.2454 187.669 34.4305 188.632 34.912C189.402 35.2971 184.459 40.5294 181.891 43.0974C183.978 41.6529 188.247 39.0528 188.632 40.2084C186.385 41.9739 181.795 45.5048 181.41 45.5048C180.928 45.5048 176.595 50.3198 175.632 51.2828C174.669 52.2458 173.224 73.913 172.261 78.2465Z" fill="#E8A088"/>
<path d="M109.667 83.5429C109.282 87.0097 126.84 100.074 135.668 106.173C137.915 109.865 141.349 117.055 137.112 116.285C131.816 115.322 111.593 98.9507 110.148 98.4692C108.704 97.9878 104.37 85.9504 103.889 82.0984C103.407 78.2465 106.778 72.4685 107.259 72.4685C107.645 72.4685 107.42 75.3575 107.259 76.802C108.062 75.0365 109.86 71.6018 110.63 71.987C111.4 72.3722 110.951 76.6415 110.63 78.728C110.148 80.1725 109.667 79.691 109.667 83.5429Z" fill="#E8A088"/>
<path d="M142.409 103.766C145.875 102.995 152.199 99.1112 153.483 97.0248L154.927 99.4322L156.372 101.84L158.779 105.692L144.816 110.988C144.495 109.062 143.949 105.306 142.409 103.766Z" fill="#E29078"/>
<path d="M173.224 123.507C176.306 128.9 176.434 146.298 176.113 154.323L155.89 160.101C156.051 159.78 155.024 158.849 149.631 157.693C142.89 156.249 142.89 147.1 142.89 142.767C139.423 139.685 138.557 135.063 138.557 133.137V122.062C137.594 119.976 135.282 115.129 133.742 112.433C132.297 109.062 134.223 104.729 135.668 105.692C136.823 106.462 141.125 105.852 143.372 105.21C143.532 105.692 143.372 107.136 145.779 109.544C147.705 108.581 153.483 104.729 156.853 103.766C159.385 103.042 160.7 98.1592 161.117 95.1741C161.122 94.9282 161.141 94.7535 161.187 94.6173C161.167 94.7937 161.144 94.9799 161.117 95.1741C161.104 95.7976 161.187 96.8789 161.187 98.9507C161.187 102.355 165.039 106.173 167.446 107.136C169.854 108.099 170.817 98.9507 170.335 94.6173C173.032 95.0025 172.743 100.235 172.261 102.803C172.422 103.766 173.128 106.366 174.669 109.062C176.595 112.433 174.669 118.211 173.224 123.507Z" fill="#FCCB7F"/>
<path d="M167.446 107.618C170.913 115.322 166.965 142.927 164.557 155.767L158.779 159.138C161.668 147.582 167.446 121.099 167.446 107.618Z" fill="#F4C077"/>
<path d="M158.213 138.915C160.875 143.091 155.332 159.4 153.483 166.36L152.038 164.434C154.257 158.17 158.213 144.693 158.213 138.915Z" fill="#F4C077"/>
<path d="M169.287 145.656C171.95 149.832 166.406 166.141 164.557 173.101L163.113 171.175C165.331 164.911 169.287 151.434 169.287 145.656Z" fill="#F4C077"/>
<path d="M149.631 158.175C157.174 155.928 173.224 151.915 177.076 153.841C179.484 159.138 191.521 173.582 182.854 189.953C174.187 206.324 167.406 209.805 163 222C161.992 224.789 164.177 229.032 165 233L179.002 242.918L170.335 252.417C172.237 257.82 174.181 262.681 175.632 266.029L162.15 269.881C160.224 262.338 155.505 246.577 152.038 243.881C150.868 241.93 149.224 239.427 147.65 236.658C146.705 236.498 143.468 234.443 138.075 227.51C131.334 218.843 134.223 216.917 135.186 213.546C136.112 210.306 146.742 187.546 147.705 182.249C144.816 177.916 152.038 170.693 151.075 169.73C150.305 168.96 149.791 161.706 149.631 158.175Z" fill="#4E4051"/>
<path d="M153.001 188.027C150.112 196.855 144.046 216.339 142.89 223.658C143.176 227.955 145.338 232.592 147.65 236.658C146.705 236.498 143.468 234.443 138.075 227.51C131.334 218.843 134.223 216.917 135.186 213.546C136.112 210.306 146.742 187.546 147.705 182.249L153.001 188.027Z" fill="#433745"/>
<path d="M178.28 48.3938C173.272 49.1642 169.854 46.4678 168.891 44.5418C168.57 45.9863 168.794 46.2752 168.409 49.3568C167.928 53.2087 174.669 55.6162 175.15 53.2087C175.632 50.8013 174.428 52.7273 178.28 48.3938Z" fill="#E29078"/>
<path d="M169.372 168.767C162.631 168.767 153.001 187.064 153.001 188.027C150.112 193.484 145.586 201.124 150.594 188.027C155.602 174.931 166.965 167.644 169.372 168.767Z" fill="#433745"/>
<path d="M150.625 174.553C150.238 176.141 154.521 179.59 154.776 179.652C156.053 180.685 157.434 183.368 154.26 181.343C151.085 179.319 150.19 175.048 150.625 174.553Z" fill="#433745"/>
<path d="M179.5 243L170.35 252.5L165 233C168.667 235.333 176.3 240.6 179.5 243Z" fill="#433745"/>
</svg>
